# xmcd CD database file
#
# Track frame offsets:
#	182
#	16412
#	46237
#	70077
#	85227
#	115700
#	136822
#	163715
#	180482
#	200915
#
# Disc length: 2976 seconds
#
# Revision: 0
# Processed by: cddbd v1.5.1PL0 Copyright (c) Steve Scherf et al.
# Submitted via: CDex 1.51
#
DISCID=800b9e0a
DTITLE=Benny Turner - Blue and not so Blue
DYEAR=1997
DGENRE=Blues
TTITLE0=G1 Homesick Blues
TTITLE1=Remember
TTITLE2=Because of you
TTITLE3=I can't leave
TTITLE4=So deep
TTITLE5=If I can't have you
TTITLE6=Have you ever been so lonesome
TTITLE7=Pity on this lovesick fool
TTITLE8=Going home tomorrow
TTITLE9=She call me King Bee
EXTD=YEAR: 1997
EXTT0=
EXTT1=
EXTT2=
EXTT3=
EXTT4=
EXTT5=
EXTT6=
EXTT7=
EXTT8=
EXTT9=
PLAYORDER=
